<?xml version="1.0" encoding="utf-8"?>
<!-- Uploaded to: SVG Repo, www.svgrepo.com, Generator: SVG Repo Mixer Tools -->
<svg fill="#000000" width="800px" height="800px" viewBox="0 0 32 32" version="1.1" xmlns="http://www.w3.org/2000/svg">
<title>flood</title>
<path d="M26.885 13.116c-0.226-0.226-0.539-0.366-0.884-0.366-0.445 0-0.836 0.233-1.058 0.583l-0.003 0.005c-1.395 2.232-2.758 3.413-3.939 3.413s-2.545-1.181-3.94-3.413c-0.238-0.334-0.624-0.549-1.060-0.549s-0.822 0.215-1.057 0.545l-0.003 0.004c-1.395 2.232-2.757 3.413-3.939 3.413s-2.545-1.181-3.939-3.413c-0.224-0.355-0.615-0.588-1.060-0.588-0.345 0-0.658 0.14-0.884 0.366l-4 4c-0.226 0.226-0.366 0.539-0.366 0.884 0 0.69 0.56 1.25 1.25 1.25 0.345 0 0.658-0.14 0.884-0.366l2.933-2.934c3.248 4.354 6.93 4.428 10.184 0.24 1.073 1.714 2.884 2.881 4.976 3.057l0.024 0.002c2.218-0.205 4.103-1.465 5.167-3.268l0.017-0.031 2.932 2.934c0.227 0.228 0.541 0.37 0.888 0.37 0.691 0 1.251-0.56 1.251-1.251 0-0.347-0.141-0.661-0.369-0.887l-0-0zM2.884 8.884l2.933-2.933c3.246 4.352 6.929 4.429 10.184 0.24 3.256 4.187 6.936 4.111 10.184-0.24l2.932 2.933c0.226 0.227 0.539 0.367 0.885 0.367 0.691 0 1.251-0.56 1.251-1.251 0-0.345-0.14-0.658-0.366-0.884v0l-4-4c-0.226-0.226-0.539-0.366-0.885-0.366-0.445 0-0.836 0.232-1.058 0.582l-0.003 0.005c-1.395 2.232-2.758 3.413-3.939 3.413s-2.545-1.181-3.94-3.413c-0.238-0.333-0.624-0.548-1.059-0.548s-0.822 0.215-1.057 0.545l-0.003 0.004c-1.396 2.231-2.758 3.412-3.94 3.412s-2.545-1.181-3.94-3.412c-0.199-0.316-0.529-0.534-0.912-0.579l-0.006-0.001c-0.040-0.005-0.087-0.007-0.135-0.007-0.347 0-0.662 0.14-0.891 0.366l-4 4c-0.225 0.226-0.363 0.537-0.363 0.881 0 0.69 0.56 1.25 1.25 1.25 0.344 0 0.655-0.139 0.881-0.363l-0 0zM26.885 23.115c-0.226-0.226-0.539-0.365-0.884-0.365-0.445 0-0.836 0.233-1.058 0.583l-0.003 0.005c-1.395 2.232-2.758 3.412-3.939 3.412s-2.545-1.18-3.94-3.412c-0.238-0.333-0.624-0.548-1.060-0.548s-0.822 0.215-1.057 0.544l-0.003 0.004c-1.395 2.232-2.757 3.412-3.939 3.412s-2.545-1.18-3.939-3.412c-0.225-0.355-0.616-0.588-1.061-0.588-0.345 0-0.657 0.14-0.884 0.366l-4 4c-0.227 0.226-0.367 0.539-0.367 0.885 0 0.691 0.56 1.251 1.251 1.251 0.345 0 0.658-0.14 0.884-0.366v0l2.933-2.934c3.248 4.352 6.93 4.426 10.184 0.24 1.073 1.714 2.884 2.881 4.976 3.057l0.024 0.002c2.218-0.205 4.103-1.465 5.167-3.268l0.017-0.031 2.932 2.934c0.226 0.226 0.539 0.366 0.884 0.366 0.691 0 1.251-0.56 1.251-1.251 0-0.345-0.14-0.658-0.366-0.884l0 0z"></path>
</svg>